<svg id="Layer_1" enable-background="new 0 0 512 512" height="512" viewBox="0 0 512 512" width="512" xmlns="http://www.w3.org/2000/svg"><path d="m276 20c0 11.046-8.954 20-20 20s-20-8.954-20-20c0-11.046 8.954-20 20-20s20 8.954 20 20zm-20 58c-11.046 0-20 8.954-20 20 0 11.046 8.954 20 20 20s20-8.954 20-20c0-11.046-8.954-20-20-20zm0 79c-11.046 0-20 8.954-20 20 0 11.046 8.954 20 20 20s20-8.954 20-20c0-11.046-8.954-20-20-20zm0 78c-11.046 0-20 8.954-20 20 0 11.046 8.954 20 20 20s20-8.954 20-20c0-11.046-8.954-20-20-20zm0 79c-11.046 0-20 8.954-20 20 0 11.046 8.954 20 20 20s20-8.954 20-20c0-11.046-8.954-20-20-20zm0 79c-11.046 0-20 8.954-20 20 0 11.046 8.954 20 20 20s20-8.954 20-20c0-11.046-8.954-20-20-20zm0 79c-11.046 0-20 8.954-20 20 0 11.046 8.954 20 20 20s20-8.954 20-20c0-11.046-8.954-20-20-20zm236-171c11.046 0 20-8.954 20-20v-77.909c0-24.739-15.536-47.323-38.658-56.198l-86.23-33.099c-16.114-6.185-34.224-4.043-48.445 5.732-14.193 9.754-22.667 25.851-22.667 43.059v176.892c0 24.738 15.536 47.323 38.658 56.199l86.23 33.099c6.08 2.333 12.443 3.481 18.775 3.481 10.45 0 20.814-3.127 29.669-9.213 14.193-9.755 22.667-25.852 22.667-43.06 0-11.046-8.954-20-20-20s-20 8.954-20 20c0 5.81-3.723 8.995-5.323 10.095-1.614 1.109-5.96 3.461-11.454 1.353l-86.23-33.099c-7.771-2.983-12.992-10.56-12.992-18.855v-176.892c0-5.81 3.723-8.995 5.323-10.095 1.614-1.11 5.958-3.461 11.454-1.353l86.231 33.099c7.771 2.982 12.992 10.56 12.992 18.854v77.91c0 11.046 8.954 20 20 20zm-296-138.415v176.892c0 24.738-15.536 47.323-38.658 56.199l-86.23 33.099c-6.079 2.333-12.444 3.481-18.776 3.481-10.451 0-20.813-3.126-29.669-9.213-14.193-9.755-22.667-25.852-22.667-43.06v-176.892c0-24.739 15.536-47.323 38.659-56.198l86.23-33.099c16.113-6.185 34.224-4.042 48.445 5.732 14.192 9.754 22.666 25.851 22.666 43.059zm-82.076-1.737 42.076 28.488v-26.751c0-5.81-3.723-8.995-5.323-10.095-1.146-.788-3.668-2.201-7-2.201-1.362 0-2.859.236-4.454.848zm-73.924 42.243v3.932l116 79.162v-48.543l-87.608-59.318-15.4 5.911c-7.771 2.984-12.992 10.561-12.992 18.856zm44.163 177.828-44.163-29.901v28.965c0 5.81 3.723 8.995 5.323 10.095 1.614 1.11 5.961 3.462 11.454 1.353zm71.837-41.442v-4.865l-116-79.162v47.262l88.213 59.727c.483.327.937.681 1.382 1.041l13.413-5.148c7.771-2.983 12.992-10.56 12.992-18.855z"/></svg>