<svg id="Layer_1" enable-background="new 0 0 512 512" height="512" viewBox="0 0 512 512" width="512" xmlns="http://www.w3.org/2000/svg"><g><g><g fill="#e9a6c5"><path d="m169.729 250.125h42.083v11.75h-42.083z"/><path d="m300.188 250.125h42.083v11.75h-42.083z"/></g><g><path d="m256 472.5c0 17.673 14.327 32 32 32h184.5c17.673 0 32-14.327 32-32v-184.5c0-17.673-14.327-32-32-32h-184.5c-17.673 0-32 14.327-32 32h-8.283v184.5z" fill="#e9a6c5"/><path d="m314.195 295.246c-2.409 8.784-9.844 16.401-18.811 18.904-3.652 1.019-6.251 4.237-6.251 8.029v116.321c0 3.698 2.547 6.826 6.113 7.804 8.784 2.409 16.401 9.844 18.904 18.811 1.02 3.652 4.23 6.251 8.022 6.251h116.336c3.698 0 6.818-2.547 7.796-6.113 2.409-8.784 9.844-16.401 18.811-18.904 3.652-1.019 6.251-4.237 6.251-8.029v-116.141c0-3.792-2.598-7.009-6.25-8.029-8.967-2.503-16.402-10.12-18.811-18.904-.978-3.566-4.106-6.113-7.804-6.113h-116.502c-3.698 0-6.826 2.547-7.804 6.113z" fill="#f9f6f6"/><path d="m472.5 256h-23.3c17.673 0 32 14.327 32 32v184.5c0 17.673-14.327 32-32 32h23.3c17.673 0 32-14.327 32-32v-184.5c0-17.673-14.327-32-32-32z" fill="#e07fa6"/><path d="m465.116 314.151c-8.967-2.503-16.402-10.12-18.811-18.904-.978-3.566-4.106-6.113-7.804-6.113h-23c3.698 0 6.826 2.547 7.804 6.113 2.409 8.784 9.844 16.401 18.811 18.904 3.652 1.02 6.25 4.237 6.25 8.029v116.14c0 3.792-2.598 7.009-6.25 8.029-8.967 2.503-16.402 10.12-18.812 18.905-.978 3.566-4.099 6.113-7.796 6.113h23c3.698 0 6.818-2.547 7.796-6.113 2.409-8.784 9.844-16.401 18.812-18.905 3.652-1.019 6.25-4.237 6.25-8.029v-116.14c.001-3.792-2.598-7.01-6.25-8.029z" fill="#ecdaec"/></g><g><path d="m348.25 256h-184.5c-17.673 0-32-14.327-32-32v-184.5c0-17.673 14.327-32 32-32h184.5c17.673 0 32 14.327 32 32v184.5c0 17.673-14.327 32-32 32z" fill="#b9e4ef"/><path d="m189.945 46.746c-2.409 8.784-9.844 16.401-18.811 18.904-3.652 1.019-6.251 4.237-6.251 8.029v116.321c0 3.698 2.547 6.826 6.113 7.804 8.784 2.409 16.401 9.844 18.904 18.812 1.02 3.652 4.23 6.251 8.022 6.251h116.336c3.698 0 6.818-2.547 7.796-6.113 2.409-8.784 9.844-16.401 18.811-18.904 3.652-1.019 6.251-4.237 6.251-8.029v-116.141c0-3.792-2.598-7.009-6.25-8.029-8.967-2.503-16.402-10.12-18.811-18.904-.978-3.566-4.106-6.113-7.804-6.113h-116.502c-3.698-.001-6.826 2.546-7.804 6.112z" fill="#f9f6f6"/><path d="m348.25 7.5h-23.3c17.673 0 32 14.327 32 32v184.5c0 17.673-14.327 32-32 32h23.3c17.673 0 32-14.327 32-32v-184.5c0-17.673-14.327-32-32-32z" fill="#93d8e4"/><path d="m340.866 65.651c-8.967-2.503-16.402-10.12-18.811-18.905-.978-3.566-4.106-6.113-7.804-6.113h-23c3.698 0 6.826 2.547 7.804 6.113 2.409 8.784 9.844 16.401 18.811 18.905 3.652 1.019 6.25 4.237 6.25 8.029v116.14c0 3.792-2.598 7.009-6.25 8.029-8.967 2.503-16.402 10.12-18.812 18.905-.978 3.566-4.099 6.113-7.796 6.113h23c3.698 0 6.818-2.547 7.796-6.113 2.409-8.784 9.844-16.401 18.812-18.905 3.652-1.019 6.25-4.237 6.25-8.029v-116.14c.001-3.792-2.598-7.01-6.25-8.029z" fill="#ecdaec"/></g><g><path d="m224 504.5h-184.5c-17.673 0-32-14.327-32-32v-184.5c0-17.673 14.327-32 32-32h184.5c17.673 0 32 14.327 32 32v184.5c0 17.673-14.327 32-32 32z" fill="#c4e14d"/><path d="m65.695 295.246c-2.409 8.784-9.844 16.401-18.811 18.904-3.652 1.019-6.251 4.237-6.251 8.029v116.321c0 3.698 2.547 6.826 6.113 7.804 8.784 2.409 16.401 9.844 18.904 18.811 1.02 3.652 4.23 6.251 8.022 6.251h116.336c3.698 0 6.818-2.547 7.796-6.113 2.409-8.784 9.844-16.401 18.811-18.904 3.652-1.019 6.251-4.237 6.251-8.029v-116.141c0-3.792-2.598-7.009-6.251-8.029-8.967-2.503-16.402-10.12-18.811-18.904-.978-3.566-4.106-6.113-7.804-6.113h-116.501c-3.698 0-6.826 2.547-7.804 6.113z" fill="#f9f6f6"/><path d="m224 256h-23.3c17.673 0 32 14.327 32 32v184.5c0 17.673-14.327 32-32 32h23.3c17.673 0 32-14.327 32-32v-184.5c0-17.673-14.327-32-32-32z" fill="#99b94d"/><path d="m216.616 314.151c-8.967-2.503-16.402-10.12-18.811-18.904-.978-3.566-4.106-6.113-7.804-6.113h-23c3.698 0 6.826 2.547 7.804 6.113 2.409 8.784 9.844 16.401 18.811 18.904 3.652 1.02 6.251 4.237 6.251 8.029v116.14c0 3.792-2.598 7.009-6.25 8.029-8.967 2.503-16.402 10.12-18.812 18.905-.978 3.566-4.099 6.113-7.796 6.113h23c3.698 0 6.818-2.547 7.796-6.113 2.409-8.784 9.844-16.401 18.812-18.905 3.652-1.019 6.25-4.237 6.25-8.029v-116.14c0-3.792-2.599-7.01-6.251-8.029z" fill="#ecdaec"/></g></g><g><path d="m329.288 218.737c1.753-6.393 7.217-11.884 13.595-13.665 6.909-1.929 11.734-8.201 11.734-15.253v-116.139c0-7.052-4.825-13.324-11.734-15.253-6.378-1.781-11.842-7.272-13.595-13.664-1.878-6.848-8.061-11.63-15.037-11.63h-116.502c-6.976 0-13.159 4.782-15.037 11.629-1.753 6.393-7.217 11.884-13.594 13.664-6.909 1.928-11.735 8.2-11.735 15.253v116.321c0 6.976 4.782 13.159 11.629 15.037 6.393 1.753 11.884 7.217 13.664 13.595 1.929 6.909 8.198 11.734 15.245 11.734h116.336c6.972.001 13.153-4.781 15.031-11.629zm-132.164-4.137c-3.196-11.451-12.674-20.882-24.145-24.028-.287-.079-.597-.291-.597-.571v-116.321c0-.408.385-.698.767-.805 11.451-3.196 20.882-12.674 24.028-24.144.079-.287.291-.597.571-.597h116.502c.28 0 .492.31.571.597 3.146 11.47 12.577 20.948 24.028 24.144.382.107.767.397.767.805v116.14c0 .408-.385.698-.767.805-11.451 3.196-20.882 12.673-24.028 24.145-.079.287-.289.597-.563.597h-116.336c-.403 0-.691-.386-.798-.767z"/><path d="m263.063 71.244c-1.066-2.985-3.894-4.978-7.063-4.978s-5.997 1.993-7.063 4.978l-41.417 115.967c-1.393 3.901.64 8.192 4.541 9.585 3.902 1.393 8.192-.64 9.585-4.54l10.056-28.156h48.596l10.056 28.156c1.095 3.067 3.983 4.979 7.063 4.979.837 0 1.689-.141 2.523-.439 3.901-1.393 5.934-5.685 4.54-9.585zm-26.004 77.856 18.941-53.034 18.941 53.034z"/><path d="m218.633 306.927c-6.378-1.781-11.842-7.272-13.595-13.664-1.878-6.848-8.061-11.63-15.037-11.63h-116.502c-6.976 0-13.159 4.782-15.037 11.629-1.753 6.393-7.217 11.884-13.594 13.664-6.909 1.928-11.735 8.2-11.735 15.253v116.321c0 6.976 4.782 13.159 11.629 15.037 6.393 1.753 11.884 7.217 13.664 13.595 1.929 6.909 8.198 11.734 15.245 11.734h116.336c6.971 0 13.151-4.782 15.029-11.629 1.753-6.393 7.217-11.884 13.595-13.664 6.909-1.929 11.734-8.201 11.734-15.253v-116.14c.002-7.052-4.824-13.324-11.732-15.253zm-3.266 131.393c0 .408-.385.698-.767.805-11.451 3.196-20.882 12.673-24.028 24.145-.079.287-.289.597-.564.597h-116.336c-.403 0-.691-.385-.798-.767-3.196-11.451-12.674-20.882-24.144-24.028-.287-.079-.597-.291-.597-.571v-116.321c0-.408.385-.698.767-.805 11.451-3.196 20.882-12.674 24.028-24.144.079-.287.291-.597.571-.597h116.501c.28 0 .492.31.571.597 3.146 11.47 12.577 20.948 24.028 24.144.382.107.767.397.767.805v116.14z"/><path d="m161.565 377.167c6.676-6.617 10.818-15.789 10.818-25.909 0-20.122-16.37-36.492-36.492-36.492h-45.558c-4.142 0-7.5 3.358-7.5 7.5v115.967c0 4.142 3.358 7.5 7.5 7.5h53.841c20.122 0 36.492-16.37 36.492-36.492 0-13.828-7.733-25.886-19.101-32.074zm-25.673-47.4c11.851 0 21.492 9.641 21.492 21.492s-9.641 21.492-21.492 21.492h-38.059v-42.983h38.059zm8.283 100.966h-46.342v-42.983h46.341c11.851 0 21.492 9.641 21.492 21.492s-9.641 21.491-21.491 21.491z"/><path d="m472.5 248.5h-93.301c5.346-6.739 8.551-15.25 8.551-24.5v-184.5c0-21.78-17.72-39.5-39.5-39.5h-184.5c-21.78 0-39.5 17.72-39.5 39.5v184.5c0 9.25 3.205 17.761 8.551 24.5h-93.301c-21.78 0-39.5 17.72-39.5 39.5v184.5c0 21.78 17.72 39.5 39.5 39.5h184.5c13.153 0 24.817-6.468 32-16.384 7.183 9.916 18.847 16.384 32 16.384h184.5c21.78 0 39.5-17.72 39.5-39.5v-184.5c0-21.78-17.72-39.5-39.5-39.5zm-333.25-24.5v-184.5c0-13.509 10.991-24.5 24.5-24.5h184.5c13.509 0 24.5 10.991 24.5 24.5v184.5c0 13.509-10.991 24.5-24.5 24.5h-184.5c-13.509 0-24.5-10.991-24.5-24.5zm117.801 39.5c-.36.454-.711.915-1.051 1.384-.34-.469-.691-.93-1.051-1.384zm-33.051 233.5h-184.5c-13.509 0-24.5-10.991-24.5-24.5v-184.5c0-13.509 10.991-24.5 24.5-24.5h184.5c13.509 0 24.5 10.991 24.5 24.5v184.5c0 13.509-10.991 24.5-24.5 24.5zm273-24.5c0 13.509-10.991 24.5-24.5 24.5h-184.5c-13.509 0-24.5-10.991-24.5-24.5v-184.5c0-13.509 10.991-24.5 24.5-24.5h184.5c13.509 0 24.5 10.991 24.5 24.5z"/><path d="m467.133 306.927c-6.378-1.781-11.842-7.272-13.595-13.664-1.878-6.848-8.061-11.63-15.037-11.63h-116.502c-6.976 0-13.159 4.782-15.037 11.629-1.753 6.393-7.217 11.884-13.594 13.664-6.909 1.928-11.735 8.2-11.735 15.253v116.321c0 6.976 4.782 13.159 11.629 15.037 6.393 1.753 11.884 7.217 13.664 13.595 1.929 6.909 8.198 11.734 15.245 11.734h116.336c6.971 0 13.151-4.782 15.029-11.629 1.753-6.393 7.217-11.884 13.595-13.664 6.909-1.929 11.734-8.201 11.734-15.253v-116.14c.002-7.052-4.824-13.324-11.732-15.253zm-3.266 131.393c0 .408-.385.698-.767.805-11.451 3.196-20.882 12.673-24.028 24.145-.079.287-.289.597-.564.597h-116.336c-.403 0-.691-.385-.798-.767-3.196-11.451-12.674-20.882-24.144-24.028-.287-.079-.597-.291-.597-.571v-116.321c0-.408.385-.698.767-.805 11.451-3.196 20.882-12.674 24.028-24.144.079-.287.291-.597.571-.597h116.501c.28 0 .492.31.571.597 3.146 11.47 12.577 20.948 24.028 24.144.382.107.767.397.767.805v116.14z"/><path d="m432.13 407.234c-3.398-2.37-8.072-1.537-10.442 1.86-9.452 13.549-24.943 21.639-41.438 21.639-27.836 0-50.483-22.647-50.483-50.483s22.647-50.483 50.483-50.483c16.494 0 31.984 8.088 41.436 21.636 2.37 3.397 7.045 4.23 10.442 1.86s4.23-7.045 1.86-10.442c-12.255-17.567-32.344-28.054-53.738-28.054-36.107 0-65.483 29.375-65.483 65.483s29.376 65.483 65.483 65.483c21.395 0 41.484-10.488 53.74-28.057 2.37-3.396 1.537-8.072-1.86-10.442z"/></g></g></svg>